<svg width="13" height="14" viewBox="0 0 13 14" fill="none" xmlns="http://www.w3.org/2000/svg">
<path fill-rule="evenodd" clip-rule="evenodd" d="M2.08321 6.87491C2.08321 4.57373 3.94869 2.70825 6.24987 2.70825C8.55106 2.70825 10.4165 4.57373 10.4165 6.87491C10.4165 7.00218 10.4143 7.44828 10.2805 7.84953C10.2145 8.0475 10.1283 8.19718 10.0282 8.29279C9.94058 8.37655 9.82477 8.43741 9.63529 8.43741C9.425 8.43741 9.32382 8.37972 9.25483 8.3092C9.16819 8.22063 9.07555 8.05154 9.00385 7.73605C8.85727 7.09108 8.85404 6.12132 8.85404 4.79158C8.85404 4.50393 8.62086 4.27075 8.33321 4.27075C8.04562 4.27075 7.81248 4.50383 7.81237 4.79139C7.37713 4.46447 6.83613 4.27075 6.24987 4.27075C4.81163 4.27075 3.64571 5.43667 3.64571 6.87491C3.64571 8.31315 4.81163 9.47908 6.24987 9.47908C7.02782 9.47908 7.72609 9.13796 8.20328 8.59714C8.28357 8.75905 8.3838 8.90841 8.51021 9.03763C8.80744 9.34146 9.19454 9.47908 9.63529 9.47908C10.0968 9.47908 10.4693 9.31208 10.7479 9.0459C11.014 8.79158 11.1719 8.46925 11.2687 8.17894C11.4583 7.61007 11.4582 7.02139 11.4582 6.87956V6.87491C11.4582 3.99843 9.12636 1.66658 6.24987 1.66658C3.37339 1.66658 1.04154 3.99843 1.04154 6.87491C1.04154 9.7514 3.37339 12.0832 6.24987 12.0832C7.08044 12.0832 7.867 11.8884 8.565 11.5416C8.82259 11.4136 8.92763 11.101 8.79962 10.8434C8.67161 10.5858 8.35901 10.4807 8.10142 10.6087C7.54425 10.8856 6.91602 11.0416 6.24987 11.0416C3.94869 11.0416 2.08321 9.1761 2.08321 6.87491ZM7.81237 6.87491C7.81237 7.73786 7.11282 8.43741 6.24987 8.43741C5.38693 8.43741 4.68737 7.73786 4.68737 6.87491C4.68737 6.01197 5.38693 5.31241 6.24987 5.31241C7.11282 5.31241 7.81237 6.01197 7.81237 6.87491Z" fill="url(#paint0_linear_0_225)" stroke="url(#paint1_linear_0_225)" stroke-width="0.5" stroke-linecap="round"/>
<defs>
<linearGradient id="paint0_linear_0_225" x1="6.24988" y1="1.66658" x2="6.24988" y2="12.0832" gradientUnits="userSpaceOnUse">
<stop stop-color="#346CBD"/>
</linearGradient>
<linearGradient id="paint1_linear_0_225" x1="6.24988" y1="1.66658" x2="6.24988" y2="12.0832" gradientUnits="userSpaceOnUse">
<stop stop-color="#346CBD"/>
</linearGradient>
</defs>
</svg>
