<svg width="33" height="33" viewBox="0 0 33 33" fill="none" xmlns="http://www.w3.org/2000/svg">
<path d="M9 19.875C9 19.1846 9.55964 18.625 10.25 18.625H15.25C15.9404 18.625 16.5 19.1846 16.5 19.875C16.5 20.5654 15.9404 21.125 15.25 21.125H10.25C9.55964 21.125 9 20.5654 9 19.875Z" fill="#089EE3"/>
<path d="M4 12.375H29V14.875H4V12.375Z" fill="#089EE3"/>
<path fill-rule="evenodd" clip-rule="evenodd" d="M11.1984 6.125H21.8016C22.8078 6.12498 23.6383 6.12497 24.3148 6.18024C25.0174 6.23765 25.6633 6.36086 26.27 6.66997C27.2108 7.14934 27.9757 7.91424 28.455 8.85505C28.7641 9.46172 28.8874 10.1076 28.9448 10.8102C29 11.4867 29 12.3171 29 13.3233V16.125C29 16.8154 28.4404 17.375 27.75 17.375C27.0596 17.375 26.5 16.8154 26.5 16.125V13.375C26.5 12.3043 26.499 11.5764 26.4531 11.0138C26.4083 10.4658 26.3271 10.1855 26.2275 9.99003C25.9878 9.51962 25.6054 9.13717 25.135 8.89749C24.9395 8.79787 24.6592 8.71672 24.1112 8.67194C23.5486 8.62597 22.8207 8.625 21.75 8.625H11.25C10.1793 8.625 9.45141 8.62597 8.8888 8.67194C8.34078 8.71672 8.06052 8.79787 7.86503 8.89749C7.39462 9.13717 7.01217 9.51962 6.77248 9.99003C6.67287 10.1855 6.59172 10.4658 6.54694 11.0138C6.50097 11.5764 6.5 12.3043 6.5 13.375V18.875C6.5 19.9457 6.50097 20.6736 6.54694 21.2362C6.59172 21.7842 6.67287 22.0645 6.77248 22.26C7.01217 22.7304 7.39462 23.1128 7.86503 23.3525C8.06052 23.4521 8.34078 23.5333 8.8888 23.5781C9.45141 23.624 10.1793 23.625 11.25 23.625H16.5C17.1904 23.625 17.75 24.1846 17.75 24.875C17.75 25.5654 17.1904 26.125 16.5 26.125H11.1984C10.1922 26.125 9.36172 26.125 8.68522 26.0698C7.9826 26.0124 7.33672 25.8891 6.73005 25.58C5.78924 25.1007 5.02434 24.3358 4.54497 23.395C4.23586 22.7883 4.11265 22.1424 4.05524 21.4398C3.99997 20.7633 3.99998 19.9328 4 18.9266V13.3234C3.99998 12.3172 3.99997 11.4867 4.05524 10.8102C4.11265 10.1076 4.23585 9.46172 4.54497 8.85505C5.02434 7.91424 5.78924 7.14934 6.73005 6.66997C7.33672 6.36086 7.9826 6.23765 8.68522 6.18024C9.36171 6.12497 10.1922 6.12498 11.1984 6.125Z" fill="#089EE3"/>
<path fill-rule="evenodd" clip-rule="evenodd" d="M21.0827 24.8748C21.0827 22.5737 22.9482 20.7082 25.2493 20.7082C27.5505 20.7082 29.416 22.5737 29.416 24.8748C29.416 25.0021 29.4137 25.4482 29.28 25.8495C29.214 26.0474 29.1278 26.1971 29.0277 26.2927C28.9401 26.3765 28.8242 26.4373 28.6348 26.4373C28.4245 26.4373 28.3233 26.3796 28.2543 26.3091C28.1677 26.2206 28.075 26.0515 28.0033 25.736C27.8567 25.091 27.8535 24.1212 27.8535 22.7915C27.8535 22.5039 27.6203 22.2707 27.3327 22.2707C27.0451 22.2707 26.8119 22.5038 26.8118 22.7913C26.3766 22.4644 25.8356 22.2707 25.2493 22.2707C23.8111 22.2707 22.6452 23.4366 22.6452 24.8748C22.6452 26.3131 23.8111 27.479 25.2493 27.479C26.0273 27.479 26.7256 27.1379 27.2028 26.5971C27.283 26.759 27.3833 26.9083 27.5097 27.0376C27.8069 27.3414 28.194 27.479 28.6348 27.479C29.0963 27.479 29.4688 27.312 29.7474 27.0458C30.0135 26.7915 30.1714 26.4692 30.2682 26.1789C30.4578 25.61 30.4577 25.0213 30.4577 24.8795V24.8748C30.4577 21.9984 28.1258 19.6665 25.2493 19.6665C22.3729 19.6665 20.041 21.9984 20.041 24.8748C20.041 27.7513 22.3729 30.0832 25.2493 30.0832C26.0799 30.0832 26.8665 29.8884 27.5645 29.5415C27.8221 29.4135 27.9271 29.1009 27.7991 28.8433C27.6711 28.5857 27.3585 28.4807 27.1009 28.6087C26.5437 28.8856 25.9155 29.0415 25.2493 29.0415C22.9482 29.0415 21.0827 27.176 21.0827 24.8748ZM26.8118 24.8748C26.8118 25.7378 26.1123 26.4373 25.2493 26.4373C24.3864 26.4373 23.6868 25.7378 23.6868 24.8748C23.6868 24.0119 24.3864 23.3123 25.2493 23.3123C26.1123 23.3123 26.8118 24.0119 26.8118 24.8748Z" fill="#089EE3" stroke="#089EE3" stroke-width="0.5" stroke-linecap="round"/>
</svg>
