<svg width="24" height="26" viewBox="0 0 24 26" fill="none" xmlns="http://www.w3.org/2000/svg">
<path fill-rule="evenodd" clip-rule="evenodd" d="M11.1225 0.743748C11.6883 0.531666 12.3117 0.531666 12.8775 0.743748L21.6275 4.025C22.1041 4.20366 22.5149 4.52357 22.8048 4.94194C23.0947 5.36032 23.2501 5.85723 23.25 6.36625V13.07C23.25 15.1593 22.6683 17.2073 21.5699 18.9846C20.4715 20.7618 18.9 22.1981 17.0312 23.1325L12.8387 25.2287C12.5783 25.359 12.2912 25.4268 12 25.4268C11.7088 25.4268 11.4217 25.359 11.1613 25.2287L6.96875 23.1325C5.10005 22.1981 3.52846 20.7618 2.43009 18.9846C1.33171 17.2073 0.749955 15.1593 0.75 13.07V6.36625C0.749937 5.85723 0.905255 5.36032 1.19519 4.94194C1.48513 4.52357 1.89587 4.20366 2.3725 4.025L11.1225 0.743748ZM12 3.085L3.25 6.36625V13.07C3.25029 14.6948 3.70299 16.2875 4.55739 17.6695C5.4118 19.0516 6.63415 20.1685 8.0875 20.895L12 22.8537V3.085Z" fill="url(#paint0_linear_0_231)"/>
<defs>
<linearGradient id="paint0_linear_0_231" x1="12" y1="0.584686" x2="12" y2="25.4268" gradientUnits="userSpaceOnUse">
<stop stop-color="#346CBD"/>
</linearGradient>
</defs>
</svg>
